<?xml version="1.0" standalone="no"?>
<!DOCTYPE svg PUBLIC "-//W3C//DTD SVG 20010904//EN"
 "http://www.w3.org/TR/2001/REC-SVG-20010904/DTD/svg10.dtd">
<svg version="1.0" xmlns="http://www.w3.org/2000/svg"
 width="1024.000000pt" height="1024.000000pt" viewBox="0 0 1024.000000 1024.000000"
 preserveAspectRatio="xMidYMid meet">
<metadata>
Created by potrace 1.14, written by Peter Selinger 2001-2017
</metadata>
<g transform="translate(0.000000,1024.000000) scale(0.100000,-0.100000)"
fill="#000000" stroke="none">
<path d="M4528 9915 c-1 -1 -43 -6 -93 -10 -96 -7 -128 -10 -215 -21 -30 -4
-68 -8 -85 -10 -16 -1 -30 -3 -30 -4 0 -1 -9 -3 -20 -4 -11 -1 -36 -6 -55 -9
-19 -4 -53 -9 -75 -13 -68 -10 -260 -50 -260 -54 0 -1 -11 -4 -25 -6 -14 -2
-68 -16 -120 -31 -52 -14 -101 -26 -107 -26 -7 0 -13 -3 -13 -7 0 -3 -8 -6
-17 -7 -19 -2 -237 -75 -335 -112 -32 -12 -61 -22 -65 -22 -5 0 -24 -10 -43
-22 -19 -12 -35 -20 -35 -19 0 2 -13 -2 -30 -9 -16 -7 -32 -13 -35 -14 -8 -2
-128 -59 -210 -100 -143 -71 -293 -154 -357 -197 -23 -15 -44 -28 -48 -28 -6
0 -98 -61 -130 -86 -11 -9 -30 -21 -42 -27 -13 -5 -23 -14 -23 -19 0 -4 -4 -8
-10 -8 -11 0 -133 -90 -138 -102 -2 -5 -9 -8 -15 -8 -7 0 -25 -12 -42 -28 -16
-15 -46 -39 -67 -54 -20 -15 -42 -33 -50 -40 -7 -7 -31 -28 -53 -47 -125 -106
-345 -319 -446 -432 -64 -72 -83 -94 -161 -190 -82 -101 -204 -264 -242 -324
-11 -16 -23 -34 -28 -40 -18 -22 -78 -115 -78 -120 0 -4 -13 -25 -28 -48 -16
-23 -43 -69 -62 -102 -18 -33 -42 -76 -53 -95 -34 -58 -176 -348 -182 -370 0
-3 -11 -27 -23 -54 -13 -28 -25 -60 -28 -73 -4 -13 -10 -26 -15 -29 -5 -3 -9
-13 -9 -22 0 -9 -7 -30 -15 -45 -15 -29 -94 -259 -98 -287 -2 -8 -6 -21 -10
-27 -5 -7 -10 -22 -12 -33 -2 -12 -14 -55 -25 -98 -12 -42 -24 -88 -26 -101
-3 -14 -7 -28 -9 -31 -2 -4 -7 -22 -10 -41 -3 -19 -12 -62 -20 -97 -8 -34 -17
-74 -20 -90 -3 -15 -7 -38 -10 -52 -2 -14 -7 -41 -9 -60 -10 -71 -17 -116 -22
-140 -3 -14 -7 -47 -10 -75 -2 -27 -6 -68 -9 -90 -28 -216 -27 -732 0 -980 4
-27 8 -66 10 -85 2 -19 6 -44 8 -55 3 -11 8 -49 12 -85 9 -74 11 -87 18 -115
2 -11 7 -36 11 -55 3 -19 9 -46 12 -60 3 -14 7 -36 9 -50 2 -14 20 -88 40
-165 20 -77 38 -147 40 -155 2 -8 4 -17 5 -20 1 -3 3 -9 4 -15 1 -5 5 -17 8
-25 5 -13 84 -249 91 -275 2 -5 10 -26 19 -46 9 -20 19 -47 23 -60 4 -13 18
-48 31 -77 13 -29 24 -55 24 -57 0 -2 20 -48 45 -101 25 -53 45 -100 45 -105
0 -5 5 -9 12 -9 6 0 9 -3 5 -6 -6 -6 14 -44 120 -234 78 -140 69 -125 176
-289 73 -112 217 -313 237 -331 3 -3 18 -23 35 -45 16 -21 36 -46 45 -55 8 -9
35 -40 60 -69 126 -149 396 -417 509 -507 13 -10 31 -26 40 -34 15 -14 162
-129 241 -190 47 -36 281 -194 300 -203 8 -4 29 -16 45 -27 17 -11 38 -23 47
-26 10 -4 18 -9 18 -13 0 -3 15 -12 33 -20 17 -8 34 -17 37 -20 3 -3 23 -15
45 -26 22 -10 52 -28 68 -38 15 -10 27 -15 27 -12 0 3 12 -2 28 -12 30 -21
290 -144 310 -147 7 -1 18 -8 24 -14 7 -7 18 -12 25 -12 7 0 66 -21 130 -46
65 -25 129 -49 143 -54 14 -4 34 -11 45 -16 11 -4 25 -8 30 -9 6 -2 36 -10 67
-20 32 -9 59 -16 60 -15 2 1 17 -4 33 -10 52 -21 288 -79 297 -74 4 3 8 1 8
-5 0 -5 8 -8 18 -6 9 1 26 -1 38 -6 11 -4 36 -10 55 -13 19 -3 43 -7 54 -10
11 -2 40 -7 65 -10 25 -3 56 -8 70 -11 14 -3 45 -8 70 -10 25 -2 56 -6 70 -9
31 -6 120 -15 230 -23 184 -15 714 -7 831 12 13 2 56 7 94 11 81 8 110 12 110
14 0 1 14 3 30 5 17 1 46 6 65 9 19 4 51 9 70 11 19 2 35 5 35 6 0 1 9 3 20 5
25 4 60 12 60 14 0 1 15 3 33 6 38 5 236 54 337 84 39 12 77 23 85 25 8 2 35
11 60 20 25 9 50 17 55 19 26 6 92 28 110 36 41 19 135 51 139 48 2 -2 14 6
26 17 12 11 24 19 26 18 10 -7 34 -2 46 9 7 7 20 14 27 16 33 7 314 143 323
157 4 5 8 6 8 2 0 -5 13 1 29 12 16 12 31 21 34 21 10 0 202 114 205 122 2 4
8 8 13 8 6 0 37 18 70 40 33 22 65 40 70 40 5 0 9 5 9 10 0 6 7 10 15 10 8 0
15 3 15 8 0 4 25 23 55 41 30 19 55 39 55 43 0 4 5 8 10 8 6 0 16 5 23 10 7 6
59 47 117 92 58 46 112 91 121 100 9 10 19 18 23 18 3 0 14 8 24 17 10 10 41
38 68 62 80 70 274 262 344 340 36 40 75 83 87 97 66 73 250 309 322 414 46
67 177 275 210 335 19 33 43 76 54 95 41 72 146 289 191 395 26 61 51 118 56
127 6 10 10 23 10 29 0 6 6 25 14 42 35 83 94 252 100 288 1 8 5 20 9 26 5 7
10 21 12 31 1 9 8 37 15 62 7 25 14 52 15 60 2 8 4 16 5 18 3 3 5 10 15 57 13
56 12 55 15 58 2 3 7 23 15 62 3 16 13 61 21 100 9 38 17 84 20 100 4 35 12
79 19 119 3 15 8 49 10 75 2 25 5 46 5 46 6 0 29 252 34 375 1 30 5 61 9 68 5
6 4 12 0 12 -10 0 -9 53 2 69 3 6 2 11 -3 11 -4 0 -6 21 -2 48 3 26 3 59 -1
72 -3 14 -2 33 3 43 5 9 5 17 1 17 -4 0 -9 51 -11 113 -2 61 -4 138 -5 169 -1
32 -4 58 -7 58 -3 0 -7 26 -9 58 -5 76 -8 107 -10 107 -1 0 -4 16 -7 35 -8 75
-13 109 -19 132 -3 12 -7 37 -9 53 -2 17 -11 64 -20 105 -8 41 -17 86 -20 100
-2 14 -12 54 -21 90 -9 36 -19 72 -21 80 -2 8 -8 33 -14 55 -6 22 -12 46 -12
53 -1 6 -5 12 -10 12 -5 0 -6 5 -2 11 3 6 2 21 -4 32 -6 12 -25 69 -43 127
-18 58 -36 110 -40 116 -5 6 -10 19 -12 30 -2 10 -10 35 -19 55 -9 20 -19 47
-23 60 -8 27 -18 49 -96 224 -29 66 -58 123 -63 127 -6 4 -8 8 -4 8 4 0 -9 30
-29 68 -68 127 -146 267 -172 307 -15 22 -33 52 -40 68 -8 15 -18 27 -23 27
-18 0 -7 30 23 62 17 18 49 55 72 82 23 27 67 75 97 106 48 50 62 59 105 65
28 5 55 9 60 11 6 1 26 5 45 8 19 4 49 10 65 15 61 16 70 14 320 -79 105 -39
197 -72 205 -75 8 -2 29 -8 45 -15 17 -6 32 -12 35 -13 3 0 55 -20 117 -42
l111 -42 7 31 c4 17 9 40 12 50 2 11 10 46 19 78 l15 59 -41 116 c-22 64 -52
131 -65 149 -14 18 -25 37 -25 42 0 6 -7 12 -15 16 -8 3 -15 10 -15 17 0 6
-13 28 -30 49 -16 21 -30 42 -30 48 0 6 -4 12 -8 14 -5 2 -46 59 -92 128 -96
142 -109 156 -299 316 -92 78 -85 65 -86 175 -1 91 -3 101 -24 117 -13 9 -35
27 -51 39 -15 12 -30 20 -34 16 -3 -3 -6 -1 -6 5 0 28 -30 9 -48 -30 -11 -24
-41 -88 -67 -143 -26 -55 -54 -115 -61 -133 -17 -38 -9 -42 -161 59 -58 38
-108 69 -112 69 -4 0 -26 -19 -49 -43 l-42 -43 39 -77 c22 -42 37 -77 34 -77
-2 0 3 -7 11 -16 9 -8 16 -19 16 -23 0 -6 -278 -277 -375 -365 -16 -15 -57
-54 -91 -86 l-60 -59 -75 81 c-171 187 -375 374 -594 546 -113 88 -350 252
-407 281 -16 8 -28 18 -28 23 0 4 -4 8 -8 8 -5 0 -65 32 -133 70 -68 39 -129
70 -135 70 -7 0 -14 4 -16 8 -1 4 -37 24 -78 44 -145 69 -230 108 -235 108 -3
0 -24 8 -48 19 -134 59 -334 131 -341 123 -3 -3 -6 1 -6 8 0 7 -3 11 -6 7 -4
-3 -22 0 -41 8 -19 8 -39 12 -44 9 -5 -3 -9 0 -9 5 0 6 -3 10 -7 9 -14 -3 -78
14 -90 24 -7 6 -13 8 -13 5 0 -4 -18 0 -40 8 -22 8 -40 12 -40 10 0 -3 -12 0
-27 6 -24 9 -202 49 -283 64 -14 2 -49 9 -78 15 -29 5 -56 9 -60 9 -4 -1 -10
0 -14 1 -5 1 -16 3 -25 4 -10 2 -40 6 -68 10 -76 12 -95 14 -165 21 -36 3 -87
8 -115 11 -54 6 -641 14 -647 9z m632 -169 c14 -2 64 -7 110 -11 47 -4 94 -9
105 -11 11 -2 45 -7 75 -10 30 -3 58 -8 61 -10 3 -2 33 -6 65 -10 32 -3 62 -8
67 -11 4 -2 20 -6 35 -9 81 -13 152 -29 292 -65 85 -22 164 -43 175 -48 11 -4
61 -21 110 -36 50 -15 104 -33 120 -40 57 -24 170 -67 183 -69 7 -1 18 -8 24
-14 7 -7 18 -12 25 -12 7 0 21 -4 31 -9 9 -5 40 -19 67 -31 92 -41 220 -104
226 -113 3 -5 8 -8 10 -7 9 5 75 -30 212 -112 43 -27 80 -48 82 -48 2 0 47
-29 100 -65 54 -36 99 -65 102 -65 2 0 9 -5 16 -10 7 -6 64 -50 128 -98 105
-79 169 -128 202 -157 148 -130 215 -193 333 -312 146 -148 177 -189 156 -202
-10 -6 -150 -138 -355 -335 -40 -37 -136 -129 -213 -203 -78 -74 -167 -158
-197 -187 -41 -40 -88 -69 -191 -119 -75 -37 -198 -97 -273 -134 -76 -37 -140
-68 -143 -68 -14 -3 -185 -91 -188 -97 -2 -5 -9 -8 -16 -8 -7 0 -80 -33 -162
-74 -82 -41 -221 -109 -309 -151 -88 -43 -261 -127 -385 -188 -124 -60 -304
-148 -400 -194 -96 -47 -210 -102 -253 -124 -43 -21 -81 -38 -85 -37 -16 3
-93 -15 -98 -23 -3 -5 -9 -7 -13 -5 -4 3 -25 0 -47 -5 -21 -5 -50 -12 -64 -15
-14 -3 -65 -14 -115 -25 -49 -12 -101 -23 -115 -25 -14 -3 -43 -10 -64 -15
-22 -6 -51 -12 -65 -14 -14 -2 -27 -4 -28 -6 -4 -2 -12 -4 -55 -13 -21 -5 -38
-12 -38 -17 0 -5 -3 -8 -7 -7 -9 1 -46 -13 -53 -21 -3 -3 -26 -17 -52 -30 -27
-13 -48 -27 -48 -31 0 -5 -29 -44 -65 -89 -36 -44 -65 -85 -65 -90 0 -6 -6
-14 -13 -18 -7 -4 -28 -28 -47 -53 -19 -25 -38 -49 -43 -55 -136 -175 -202
-265 -193 -265 3 0 -4 -26 -15 -57 -11 -32 -20 -60 -20 -63 1 -6 -3 -17 -62
-215 -68 -228 -75 -255 -83 -320 -3 -33 -12 -100 -19 -150 -15 -108 -15 -107
32 -209 49 -106 47 -105 56 -51 8 42 11 56 47 185 17 63 33 122 35 130 2 8 15
56 30 105 15 50 28 98 28 108 1 9 5 17 10 17 5 0 5 -24 1 -52 -4 -29 -8 -70
-8 -90 -1 -21 -3 -38 -6 -38 -4 0 -7 -10 -7 -22 -1 -13 -3 -39 -6 -58 -3 -19
-8 -62 -12 -95 -3 -33 -9 -71 -11 -85 -3 -14 -7 -47 -9 -75 -3 -27 -7 -61 -10
-75 -6 -31 -13 -82 -20 -145 -3 -27 -7 -61 -9 -75 -3 -14 -7 -47 -11 -75 -3
-27 -8 -63 -10 -80 -3 -16 -7 -51 -10 -78 -6 -65 -16 -119 -26 -138 -4 -9 -10
-27 -13 -40 -2 -13 -9 -37 -16 -54 -6 -16 -11 -31 -11 -32 0 -2 -20 -62 -45
-135 -25 -73 -47 -141 -49 -151 -2 -9 -7 -22 -10 -27 -3 -5 -8 -19 -11 -30 -2
-11 -6 -29 -9 -40 -13 -51 -16 -67 -20 -90 -2 -14 -11 -58 -19 -97 -9 -40 -18
-86 -21 -101 -2 -16 -12 -64 -21 -108 -9 -43 -20 -99 -25 -124 -10 -54 -17
-90 -25 -127 -3 -16 -8 -41 -11 -58 -8 -47 -11 -60 -13 -60 -1 0 -3 -13 -6
-30 -4 -33 -12 -70 -14 -70 -1 0 -3 -9 -4 -20 -7 -46 -17 -102 -26 -135 -5
-19 -11 -48 -14 -65 -2 -16 -9 -55 -16 -85 -6 -30 -13 -66 -15 -80 -3 -14 -7
-36 -10 -50 -8 -35 -24 -121 -28 -145 -1 -11 -6 -26 -11 -33 -4 -7 -6 -16 -3
-18 2 -3 0 -22 -5 -42 -8 -34 -14 -64 -20 -117 -3 -19 4 -20 146 -23 l148 -3
-27 48 c-15 27 -35 56 -43 66 -8 9 -12 17 -7 17 4 0 3 6 -4 13 -10 13 -9 34 3
75 3 9 7 33 10 52 6 36 7 44 24 120 6 25 13 61 16 80 3 19 12 64 20 100 8 36
18 83 21 105 9 50 12 67 25 130 9 43 17 84 24 132 3 19 140 288 151 295 5 4 7
8 3 8 -5 0 301 619 328 661 5 8 9 16 9 19 0 18 99 200 108 200 7 0 7 -4 -1
-12 -7 -7 -12 -22 -12 -34 0 -13 -4 -25 -9 -29 -6 -3 -9 -13 -9 -23 0 -9 -2
-28 -5 -42 -3 -14 -8 -34 -10 -45 -3 -11 -13 -49 -22 -85 -9 -36 -18 -69 -19
-75 -1 -5 -6 -24 -10 -42 -5 -22 -1 -57 14 -110 12 -43 23 -85 25 -93 2 -8 4
-15 5 -15 1 0 3 -7 5 -15 1 -8 10 -42 19 -75 9 -33 19 -67 21 -75 20 -76 106
-382 114 -407 5 -18 7 -33 5 -33 -3 0 -2 -6 3 -12 4 -7 8 -17 9 -23 5 -26 34
-126 38 -133 3 -5 7 -19 10 -33 4 -25 38 -152 55 -207 5 -18 10 -34 11 -37 0
-3 2 -10 5 -17 2 -7 13 -49 25 -93 12 -44 28 -105 36 -135 8 -30 17 -62 19
-70 30 -111 38 -136 44 -143 4 -4 76 -6 160 -5 l152 3 -38 50 c-21 27 -45 58
-54 68 -30 34 -57 102 -144 362 -47 143 -87 265 -89 270 -2 6 -8 23 -15 40 -7
16 -14 56 -17 90 -2 33 -6 76 -9 95 -2 19 -6 65 -9 102 -3 37 -8 84 -11 105
-4 36 -12 128 -20 223 -1 25 -6 68 -9 95 -3 28 -8 79 -11 115 -9 110 -15 174
-19 195 -3 18 5 40 54 150 10 22 46 105 80 185 34 80 67 151 72 158 6 6 7 12
3 12 -4 0 -2 6 4 13 6 8 9 16 6 19 -3 3 1 11 10 18 8 7 15 18 15 24 0 7 22 62
50 124 47 108 53 116 151 211 l102 98 478 -1 478 -1 82 -82 81 -83 -7 -62 c-4
-35 -9 -71 -11 -82 -2 -10 -6 -44 -10 -75 -3 -31 -8 -64 -10 -75 -2 -10 -6
-44 -10 -75 -3 -31 -8 -65 -10 -76 -4 -19 -12 -85 -19 -150 -2 -16 -5 -30 -6
-30 -1 0 -3 -18 -4 -40 -2 -22 -4 -40 -5 -40 -1 0 -4 -13 -5 -30 -6 -51 -15
-119 -20 -150 -3 -16 -7 -50 -10 -75 -6 -46 -13 -85 -15 -85 0 0 -3 -26 -5
-57 -2 -32 -9 -84 -14 -115 -6 -32 -12 -78 -15 -103 -6 -52 -14 -110 -22 -160
-3 -19 -7 -48 -9 -65 -10 -89 -15 -132 -19 -150 -2 -11 -7 -45 -11 -75 -3 -30
-8 -66 -10 -80 -2 -14 -7 -47 -10 -75 -4 -27 -8 -61 -10 -75 -2 -14 -7 -47
-10 -75 -3 -27 -8 -61 -10 -75 -17 -98 -24 -248 -14 -291 4 -15 3 -32 -1 -40
-5 -7 -6 -18 -2 -23 3 -6 7 -41 8 -79 2 -38 5 -71 7 -73 2 -3 70 -3 150 -2
l147 3 -55 80 -54 80 4 120 c3 66 8 165 10 220 7 130 17 367 19 427 0 27 4 48
7 48 3 0 4 11 1 25 -4 24 38 193 60 241 6 12 11 33 11 48 1 14 5 26 8 26 3 0
6 6 7 13 1 18 9 49 21 80 6 15 8 27 5 27 -4 0 -1 7 6 15 7 8 9 15 6 15 -4 0
-2 9 4 21 6 11 13 28 15 37 1 9 9 37 16 62 7 25 13 47 14 50 7 28 31 106 46
154 10 32 16 63 13 67 -3 5 0 9 5 9 6 0 10 3 9 8 -1 4 6 34 16 67 10 33 19 65
20 70 2 6 9 30 16 55 7 25 14 50 15 55 2 6 17 57 34 115 18 58 38 128 46 155
63 224 69 240 98 243 31 4 28 11 116 -223 34 -88 66 -168 71 -177 6 -10 10
-26 10 -36 0 -10 4 -22 8 -27 5 -6 19 -37 31 -70 22 -56 27 -70 50 -127 5 -13
17 -43 26 -68 9 -25 22 -56 28 -70 5 -14 12 -34 14 -44 2 -11 8 -25 14 -32 5
-6 11 -20 14 -30 2 -11 29 -82 60 -159 31 -77 57 -148 58 -157 0 -10 4 -18 8
-18 4 0 10 -11 13 -25 4 -14 31 -89 62 -167 31 -79 66 -170 79 -203 12 -33 26
-69 30 -80 5 -11 9 -22 10 -25 1 -3 5 -14 10 -25 4 -11 21 -54 37 -95 16 -41
33 -84 37 -95 5 -11 14 -36 21 -55 7 -19 19 -50 27 -69 8 -18 16 -39 18 -45 1
-6 7 -24 14 -41 7 -16 30 -77 52 -135 22 -58 45 -116 51 -130 7 -14 12 -27 12
-30 1 -3 16 -44 35 -93 l34 -87 96 0 96 0 -31 -28 c-35 -30 -63 -52 -144 -111
-30 -22 -61 -45 -67 -51 -17 -15 -260 -173 -303 -198 -148 -84 -199 -112 -208
-112 -6 0 -12 -4 -14 -8 -2 -7 -185 -101 -208 -107 -15 -5 -109 -47 -133 -61
-15 -8 -35 -17 -45 -19 -9 -2 -57 -21 -107 -41 -49 -20 -94 -37 -100 -39 -5
-1 -17 -5 -25 -8 -42 -18 -200 -67 -214 -67 -9 0 -16 -5 -16 -11 0 -5 -3 -8
-8 -5 -4 2 -45 -7 -91 -20 -46 -13 -94 -26 -107 -29 -72 -15 -87 -19 -124 -29
-14 -4 -38 -9 -55 -11 -16 -2 -30 -4 -30 -5 0 -2 -36 -9 -75 -14 -19 -3 -36
-5 -37 -7 -2 -1 -12 -3 -23 -4 -11 -1 -21 -3 -22 -4 -3 -2 -31 -6 -113 -16
-27 -3 -61 -7 -75 -10 -213 -35 -744 -40 -1035 -10 -109 11 -270 33 -270 36 0
1 -9 3 -20 4 -11 2 -33 6 -50 9 -16 2 -48 8 -70 11 -22 3 -58 11 -80 16 -22 6
-49 13 -60 15 -50 10 -64 13 -125 29 -116 30 -230 64 -250 75 -11 6 -20 9 -20
6 0 -5 -178 57 -270 94 -82 33 -104 41 -110 42 -3 0 -16 6 -30 13 -14 7 -43
21 -65 30 -57 25 -281 136 -340 169 -104 59 -240 141 -243 149 -2 4 -8 7 -14
7 -6 0 -39 20 -75 45 -35 25 -66 45 -69 45 -3 0 -17 11 -32 25 -15 14 -32 25
-39 25 -6 0 -13 3 -15 8 -1 4 -30 27 -63 52 -33 25 -62 47 -65 50 -3 3 -21 17
-40 31 -19 15 -45 36 -58 47 -13 11 -42 35 -64 54 -23 18 -57 48 -75 66 -18
18 -33 30 -33 28 0 -3 -70 65 -156 151 -142 142 -376 409 -420 480 -10 15 -22
30 -25 33 -4 3 -41 55 -83 115 -42 61 -79 115 -83 121 -11 14 -27 40 -70 113
-21 35 -45 75 -54 90 -77 127 -220 412 -259 517 -6 16 -17 42 -25 59 -19 43
-90 237 -116 320 -12 39 -24 77 -27 85 -6 18 -4 11 -37 130 -36 128 -87 352
-81 358 3 2 1 12 -4 22 -5 9 -10 34 -12 54 -1 20 -5 36 -8 36 -3 0 -6 17 -7
38 -1 20 -4 53 -7 72 -3 19 -8 58 -11 85 -4 28 -8 64 -10 80 -27 211 -27 729
1 953 3 23 7 62 9 85 2 23 4 42 5 42 1 0 3 16 5 35 2 20 6 50 9 68 3 18 8 47
11 65 3 17 8 46 11 62 3 17 8 45 11 64 3 18 25 113 49 210 46 183 47 186 56
211 10 27 52 165 53 172 0 3 3 10 8 14 4 4 7 14 7 22 0 8 6 28 14 45 8 18 33
82 56 142 23 61 46 114 51 119 5 6 9 16 9 22 0 17 112 248 122 252 4 2 8 9 8
17 0 11 22 53 110 210 12 22 28 47 36 56 8 8 14 19 14 23 0 4 26 47 57 94 32
48 60 91 62 97 2 5 8 14 13 20 4 5 55 73 112 150 58 77 115 152 128 166 13 15
41 48 63 75 87 104 377 404 391 404 3 0 15 11 27 24 22 23 194 169 256 216 18
14 39 30 46 37 7 7 15 9 19 6 3 -4 6 -2 6 4 0 6 19 23 43 39 23 16 44 31 47
35 8 9 180 123 255 169 143 87 294 170 310 170 8 0 15 4 17 8 3 9 194 102 252
123 20 7 36 17 36 22 0 4 4 6 9 3 5 -4 22 0 38 8 37 20 203 86 213 86 5 0 21
5 37 12 15 6 33 12 38 14 6 2 71 22 145 44 111 34 337 93 400 105 143 26 308
53 330 53 8 1 32 3 53 6 76 12 114 16 212 22 55 3 101 7 103 9 5 4 574 -4 602
-9z m3618 -2239 c27 -45 64 -109 81 -142 18 -33 37 -64 42 -69 5 -6 9 -18 9
-28 0 -10 4 -18 8 -18 5 0 23 -33 42 -72 18 -40 51 -110 72 -155 21 -46 38
-85 38 -88 0 -3 9 -24 19 -48 24 -52 93 -239 122 -332 12 -38 25 -77 28 -85 2
-8 6 -19 6 -25 1 -5 5 -17 8 -25 7 -17 56 -201 63 -239 3 -12 12 -53 20 -90 9
-36 17 -75 19 -86 1 -11 10 -60 19 -110 20 -112 26 -156 32 -220 10 -108 13
-130 14 -130 3 0 11 -124 14 -225 2 -58 5 -109 6 -115 1 -5 2 -12 1 -15 -6
-19 -4 -160 2 -160 5 0 5 -5 1 -11 -4 -7 -8 -50 -9 -98 -4 -126 -23 -335 -40
-446 -2 -11 -7 -45 -10 -75 -4 -30 -9 -59 -12 -63 -3 -4 -7 -27 -9 -50 -3 -23
-9 -58 -14 -77 -5 -19 -12 -50 -15 -68 -3 -18 -21 -92 -40 -165 -20 -72 -37
-139 -39 -147 -1 -8 -5 -22 -8 -30 -3 -8 -22 -67 -42 -130 -64 -198 -195 -520
-237 -580 -9 -14 -17 -29 -18 -35 -3 -24 -13 -45 -22 -45 -5 0 -9 -7 -9 -15 0
-8 -13 -37 -30 -65 -16 -28 -30 -55 -30 -60 0 -6 -5 -10 -12 -10 -6 0 -8 -3
-5 -6 3 -4 -3 -18 -13 -32 -11 -13 -20 -28 -20 -32 0 -10 -120 -201 -137 -218
-7 -7 -13 -20 -13 -28 0 -8 -3 -14 -8 -14 -4 0 -16 -16 -26 -35 -10 -19 -26
-42 -35 -52 -9 -10 -27 -35 -41 -55 -14 -21 -28 -38 -32 -38 -5 0 -8 -5 -8
-10 0 -6 -6 -18 -12 -26 -24 -27 -33 -39 -72 -89 -22 -28 -46 -57 -53 -65 -8
-8 -22 -25 -32 -38 -109 -134 -353 -380 -504 -509 l-37 -32 -52 54 c-35 37
-60 76 -76 118 -13 34 -28 70 -33 79 -5 10 -9 25 -9 33 0 8 -4 23 -10 33 -5 9
-37 91 -70 182 -34 91 -67 177 -75 191 -8 14 -12 28 -10 31 3 3 -6 32 -20 66
-22 55 -48 152 -91 347 -9 39 -21 85 -26 103 -6 18 -7 36 -4 39 3 3 1 14 -4
24 -6 10 -17 51 -26 91 -9 40 -20 89 -24 108 -5 19 -11 46 -14 60 -17 77 -48
210 -57 243 -6 21 -12 50 -14 65 -2 15 -8 42 -14 61 -6 18 -10 36 -9 40 0 3
-1 8 -2 11 -3 8 -8 33 -15 65 -5 28 -17 79 -76 325 -13 52 -24 102 -25 110 -4
25 -32 146 -43 186 -6 20 -8 41 -5 45 2 4 0 10 -6 14 -9 6 -6 85 6 145 3 14 7
52 10 85 7 75 12 110 14 110 1 0 3 24 5 54 2 30 6 66 10 80 4 14 8 54 11 90 2
35 6 76 9 90 3 14 8 51 11 81 4 30 8 66 10 80 1 14 5 50 8 80 3 30 8 64 10 76
4 21 -2 57 -39 235 -13 62 -13 72 6 135 11 38 22 80 25 94 3 13 13 32 22 41 9
9 34 36 55 61 20 25 54 64 75 86 20 23 55 63 77 88 22 26 49 57 60 69 21 24
105 119 140 159 11 12 49 56 85 96 64 73 150 170 160 180 3 3 32 37 65 75 33
39 64 75 70 81 5 6 37 41 70 79 33 38 69 78 80 91 11 12 45 50 75 84 30 35 60
68 65 74 6 6 41 47 80 91 38 44 76 87 85 96 8 9 28 31 44 50 73 84 165 189
211 240 27 30 63 70 78 87 16 18 33 30 37 27 5 -3 31 -43 58 -88z m-4911
-2577 c1 -11 -2 -20 -7 -20 -6 0 -7 17 -1 38 3 8 7 -1 8 -18z"/>
</g>
</svg>
